<?xml version="1.0" standalone="no"?>
<!DOCTYPE svg PUBLIC "-//W3C//DTD SVG 20010904//EN"
 "http://www.w3.org/TR/2001/REC-SVG-20010904/DTD/svg10.dtd">
<svg version="1.0" xmlns="http://www.w3.org/2000/svg"
 width="500.000000pt" height="500.000000pt" viewBox="0 0 500.000000 500.000000"
 preserveAspectRatio="xMidYMid meet">

<g transform="translate(0.000000,500.000000) scale(0.100000,-0.100000)"
fill="#000000" stroke="none">
<path d="M10 2500 l0 -2500 2490 0 2490 0 0 2500 0 2500 -2490 0 -2490 0 0
-2500z m1661 1251 c41 -42 41 -98 -1 -138 l-30 -28 0 -347 0 -347 118 -3 117
-3 3 -33 3 -33 -153 3 -153 3 -3 379 -2 378 -30 28 c-38 36 -46 70 -25 113 30
63 107 77 156 28z m890 0 c40 -40 40 -88 -1 -134 l-30 -35 0 -176 0 -176 -35
0 -35 0 0 178 0 178 -29 22 c-16 12 -32 35 -36 52 -21 96 97 160 166 91z
m-493 -181 c29 -29 34 -30 114 -30 52 0 89 -5 96 -12 8 -8 12 -57 12 -155 l0
-143 -35 0 -35 0 0 121 0 120 -57 -2 c-49 -2 -63 -6 -91 -33 -47 -44 -103 -43
-143 2 -40 44 -40 93 0 133 41 41 98 41 139 -1z m1557 6 c47 -48 44 -111 -8
-149 -42 -32 -93 -28 -128 11 l-29 32 -347 -2 -348 -3 -3 -117 -3 -118 -34 0
-35 0 0 143 c0 98 4 147 12 155 9 9 108 12 384 12 l372 0 30 30 c40 39 101 42
137 6z m-177 -399 c31 -33 37 -78 17 -116 -9 -18 -23 -35 -31 -38 -11 -4 -14
-25 -14 -92 0 -54 -5 -92 -12 -99 -8 -8 -57 -12 -155 -12 l-143 0 0 35 0 35
115 0 115 0 0 59 c0 53 -3 63 -30 89 -39 40 -41 88 -4 131 22 27 33 31 73 31
37 0 52 -5 69 -23z m-525 -16 c43 -10 80 -41 105 -86 15 -26 17 -79 20 -415 1
-212 0 -408 -3 -437 -8 -67 -39 -112 -95 -140 -44 -23 -49 -23 -460 -23 -383
0 -418 2 -456 19 -23 10 -52 34 -65 52 l-24 34 -3 443 c-3 436 -2 444 18 478
25 39 65 70 100 77 47 8 825 7 863 -2z m-1430 -481 l26 -30 181 0 181 0 -3
-32 -3 -33 -177 -3 -177 -2 -30 -30 c-33 -34 -74 -39 -120 -15 -34 17 -41 33
-41 86 0 55 37 89 96 89 35 0 47 -5 67 -30z m2138 1 c62 -63 19 -161 -71 -161
-34 0 -48 6 -70 30 l-28 30 -176 0 -176 0 0 35 0 35 174 0 174 0 30 30 c42 42
101 42 143 1z m-1759 -289 c7 -51 4 -52 -118 -52 l-114 0 0 -59 c0 -53 3 -63
30 -89 79 -80 -6 -206 -107 -158 -39 19 -67 72 -57 111 3 14 19 36 35 49 28
24 29 28 29 115 0 75 3 92 18 100 9 6 76 11 148 11 l132 0 4 -28z m1532 12
c13 -13 16 -46 16 -200 l0 -184 -35 0 -35 0 0 160 0 160 -120 0 -120 0 0 40 0
40 139 0 c114 0 143 -3 155 -16z m-361 -584 c5 -4 6 -17 3 -28 -6 -16 -13 -18
-54 -14 -60 5 -75 -11 -76 -77 -1 -66 15 -84 76 -79 46 3 48 2 48 -23 0 -23
-5 -27 -41 -33 -88 -14 -154 53 -146 147 5 58 32 98 78 114 34 13 97 9 112 -7z
m-1013 -95 l0 -105 50 0 c47 0 50 -2 50 -25 0 -25 -1 -25 -80 -25 l-80 0 0
130 0 130 30 0 30 0 0 -105z m200 12 c0 -101 7 -117 50 -117 43 0 50 16 50
117 l0 93 30 0 30 0 0 -100 c0 -96 -1 -101 -29 -132 -25 -28 -34 -32 -81 -32
-47 0 -56 4 -81 32 -28 31 -29 36 -29 132 l0 100 30 0 30 0 0 -93z m390 68 c0
-22 -4 -25 -35 -25 l-35 0 0 -105 0 -105 -30 0 -30 0 0 105 0 105 -35 0 c-31
0 -35 3 -35 25 l0 25 100 0 100 0 0 -25z m190 0 c0 -23 -4 -25 -45 -25 -41 0
-45 -2 -45 -25 0 -23 4 -25 45 -25 41 0 45 -2 45 -25 0 -23 -4 -25 -45 -25
-43 0 -45 -1 -45 -30 0 -29 2 -30 45 -30 41 0 45 -2 45 -25 0 -24 -2 -25 -75
-25 l-75 0 0 130 0 130 75 0 c73 0 75 -1 75 -25z m75 -385 c0 -13 -51 -15
-389 -18 -229 -1 -394 2 -399 7 -28 28 11 31 396 29 341 -3 392 -5 392 -18z
m-2254 -317 c5 -16 12 -35 15 -43 4 -10 11 0 21 28 9 24 21 42 30 42 8 0 13
-6 11 -12 -3 -7 -13 -37 -22 -65 -12 -36 -23 -53 -34 -53 -12 0 -23 17 -36 53
-10 28 -21 58 -23 65 -3 6 2 12 11 12 9 0 21 -12 27 -27z m129 -38 c0 -58 -2
-65 -20 -65 -18 0 -20 7 -20 65 0 58 2 65 20 65 18 0 20 -7 20 -65z m100 50
c0 -8 -9 -15 -20 -15 -11 0 -20 -4 -20 -10 0 -5 9 -10 20 -10 11 0 20 -7 20
-15 0 -8 -9 -15 -20 -15 -11 0 -20 -4 -20 -10 0 -5 9 -10 20 -10 11 0 20 -7
20 -15 0 -11 -11 -15 -40 -15 l-40 0 0 65 0 65 40 0 c29 0 40 -4 40 -15z m83
-27 c10 -28 17 -38 21 -28 3 8 10 27 15 43 7 17 18 27 31 27 18 0 20 -6 20
-65 0 -51 -3 -65 -15 -65 -11 0 -15 11 -16 38 l-1 37 -12 -35 c-16 -44 -41
-50 -54 -13 l-10 28 -1 -27 c-1 -18 -6 -28 -16 -28 -12 0 -15 14 -15 65 0 57
2 65 19 65 14 0 24 -12 34 -42z m221 20 c34 -49 7 -108 -49 -108 -24 0 -39 7
-49 22 -34 49 -7 108 49 108 24 0 39 -7 49 -22z m116 6 c0 -10 -7 -14 -22 -12
-31 4 -33 -17 -3 -30 21 -10 26 -18 23 -40 -3 -24 -7 -27 -42 -27 -25 0 -41 5
-44 14 -3 10 2 12 20 8 38 -10 41 3 7 34 -25 24 -28 31 -19 49 14 25 80 29 80
4z m144 10 c10 -4 16 -18 16 -36 0 -24 -6 -32 -30 -41 -18 -7 -30 -19 -30 -29
0 -10 -7 -18 -15 -18 -12 0 -15 14 -15 65 l0 65 29 0 c16 0 36 -3 45 -6z m125
-49 c12 -31 21 -60 21 -65 0 -16 -27 -11 -34 5 -3 8 -15 15 -26 15 -11 0 -23
-7 -26 -15 -7 -16 -34 -21 -34 -5 0 5 9 34 21 65 15 39 26 55 39 55 13 0 24
-16 39 -55z m115 49 c18 -7 21 -45 6 -60 -8 -8 -5 -18 8 -34 l18 -22 19 61
c15 50 22 61 40 61 17 0 25 -11 39 -52 9 -29 20 -59 23 -65 3 -8 -3 -13 -16
-13 -12 0 -21 6 -21 15 0 9 -9 15 -25 15 -16 0 -25 -6 -25 -15 0 -27 -61 -19
-87 13 l-22 27 -1 -27 c0 -18 -5 -28 -15 -28 -12 0 -15 14 -15 65 l0 65 29 0
c16 0 36 -3 45 -6z m290 0 c18 -7 22 -49 5 -59 -7 -5 -5 -15 5 -31 19 -28 20
-34 4 -34 -7 0 -22 12 -35 28 l-22 27 -1 -27 c0 -18 -5 -28 -15 -28 -12 0 -15
14 -15 65 l0 65 29 0 c16 0 36 -3 45 -6z m124 -6 c-3 -7 -14 -14 -26 -16 -29
-4 -28 -20 1 -24 27 -4 26 -22 -3 -26 -27 -4 -26 -20 2 -24 41 -6 32 -28 -11
-28 l-41 0 0 65 0 65 41 0 c28 0 39 -4 37 -12z m102 -4 c0 -10 -7 -14 -22 -12
-31 4 -33 -17 -3 -30 21 -10 26 -18 23 -40 -3 -24 -7 -27 -42 -27 -25 0 -41 5
-44 14 -3 10 2 12 20 8 38 -10 41 3 7 34 -25 24 -28 31 -19 49 14 25 80 29 80
4z m130 -3 c13 -25 13 -67 0 -92 -8 -14 -21 -19 -48 -19 -49 0 -62 14 -62 65
0 51 13 65 62 65 27 0 40 -5 48 -19z m70 -31 c0 -47 2 -50 25 -50 16 0 25 -6
25 -15 0 -11 -11 -15 -40 -15 l-40 0 0 65 c0 51 3 65 15 65 11 0 15 -12 15
-50z m101 3 l13 -48 14 48 c8 28 19 47 28 47 18 0 17 -12 -5 -75 -12 -34 -24
-51 -37 -53 -16 -2 -24 9 -41 63 -20 61 -20 65 -3 65 12 0 21 -14 31 -47z
m167 35 c-3 -7 -14 -14 -26 -16 -28 -4 -29 -22 -2 -22 11 0 20 -7 20 -15 0 -8
-9 -15 -20 -15 -27 0 -26 -18 2 -22 41 -6 32 -28 -11 -28 l-41 0 0 65 0 65 41
0 c28 0 39 -4 37 -12z m96 6 c18 -7 22 -49 5 -59 -7 -5 -5 -15 5 -31 19 -28
20 -34 4 -34 -7 0 -22 12 -35 28 l-22 27 -1 -27 c0 -18 -5 -28 -15 -28 -12 0
-15 14 -15 65 l0 65 29 0 c16 0 36 -3 45 -6z m166 -10 c0 -9 -8 -14 -17 -13
-34 3 -35 -1 -3 -31 26 -25 30 -32 20 -50 -14 -26 -80 -29 -80 -4 0 12 6 15
25 10 17 -4 25 -2 25 7 0 8 -11 19 -25 25 -16 8 -25 20 -25 35 0 31 7 37 47
37 23 0 33 -5 33 -16z m100 1 c0 -8 -9 -15 -20 -15 -11 0 -20 -4 -20 -10 0 -5
9 -10 20 -10 11 0 20 -7 20 -15 0 -8 -9 -15 -20 -15 -11 0 -20 -4 -20 -10 0
-5 9 -10 20 -10 11 0 20 -7 20 -15 0 -11 -11 -15 -40 -15 l-40 0 0 65 0 65 40
0 c29 0 40 -4 40 -15z m62 -37 c2 -39 7 -53 18 -53 11 0 16 14 18 53 3 44 6
52 23 52 16 0 19 -7 19 -46 0 -63 -13 -84 -53 -84 -46 0 -57 16 -57 77 0 40 4
53 14 53 11 0 16 -15 18 -52z m178 36 c0 -9 -8 -14 -17 -13 -34 3 -35 -1 -3
-31 26 -25 30 -32 20 -50 -14 -26 -80 -29 -80 -4 0 12 6 15 25 10 17 -4 25 -2
25 7 0 8 -11 19 -25 25 -16 8 -25 20 -25 35 0 31 7 37 47 37 23 0 33 -5 33
-16z m160 -4 c14 -27 -2 -58 -35 -66 -16 -4 -25 -13 -25 -25 0 -10 -7 -19 -15
-19 -12 0 -15 14 -15 65 l0 65 40 0 c29 0 42 -5 50 -20z m110 5 c10 -12 10
-21 2 -41 -10 -20 -9 -30 4 -49 15 -24 15 -25 -3 -25 -10 0 -26 12 -35 28
l-17 27 -1 -27 c0 -21 -5 -28 -20 -28 -18 0 -20 7 -20 65 l0 65 39 0 c22 0 44
-6 51 -15z m141 -1 c7 -9 13 -31 13 -49 0 -44 -19 -65 -60 -65 -42 0 -64 22
-64 65 0 18 7 41 16 49 20 21 78 21 95 0z m126 4 c12 -20 13 -92 1 -105 -6 -7
-28 -13 -49 -13 l-39 0 0 65 0 65 39 0 c22 0 43 -6 48 -12z m63 -37 c0 -46 2
-50 27 -53 48 -6 39 -28 -11 -28 l-46 0 0 65 c0 51 3 65 15 65 11 0 15 -12 15
-49z m150 34 c0 -8 -9 -15 -20 -15 -11 0 -20 -4 -20 -10 0 -5 9 -10 20 -10 11
0 20 -7 20 -15 0 -8 -9 -15 -20 -15 -11 0 -20 -4 -20 -10 0 -5 9 -10 20 -10
11 0 20 -7 20 -15 0 -11 -11 -15 -40 -15 l-40 0 0 65 0 65 40 0 c29 0 40 -4
40 -15z m83 -27 c10 -28 17 -38 21 -28 3 8 10 27 15 43 7 17 18 27 31 27 18 0
20 -6 20 -65 0 -51 -3 -65 -15 -65 -11 0 -15 11 -16 38 l-1 37 -12 -35 c-16
-44 -41 -50 -54 -13 l-10 28 -1 -27 c-1 -18 -6 -28 -16 -28 -12 0 -15 14 -15
65 0 57 2 65 19 65 14 0 24 -12 34 -42z m200 -10 c15 -49 19 -53 47 -52 16 1
33 2 36 3 3 0 -8 14 -26 31 -26 25 -30 32 -20 50 14 25 80 29 80 4 0 -10 -7
-14 -22 -12 -31 4 -33 -17 -3 -30 21 -10 26 -18 23 -40 -3 -26 -5 -27 -65 -29
-49 -1 -63 1 -63 13 0 8 -10 14 -25 14 -16 0 -25 -6 -25 -15 0 -8 -9 -15 -19
-15 -19 0 -19 2 2 65 17 53 25 65 42 65 17 0 25 -11 38 -52z"/>
<path d="M2426 2939 c-23 -52 -53 -66 -106 -50 -49 15 -68 9 -98 -29 -22 -28
-22 -30 -5 -64 24 -51 10 -85 -44 -111 -43 -19 -43 -20 -43 -71 0 -51 1 -53
34 -64 35 -11 66 -47 66 -75 0 -9 -7 -30 -16 -47 -16 -30 -16 -31 19 -66 35
-35 36 -35 76 -22 58 19 85 8 111 -45 21 -44 23 -45 71 -45 46 0 50 2 63 34 8
19 26 42 40 51 22 15 32 15 76 4 49 -13 50 -12 80 16 30 29 39 58 20 70 -5 3
-10 23 -10 44 0 41 14 59 65 82 26 12 30 20 33 61 3 44 1 48 -30 64 -70 35
-81 62 -56 131 11 30 10 35 -18 64 -23 24 -35 29 -56 25 -16 -3 -42 -9 -58
-12 -36 -8 -66 14 -87 64 -12 30 -17 32 -61 32 -47 0 -49 -1 -66 -41z m144
-188 c51 -27 83 -93 76 -154 -17 -148 -198 -189 -290 -64 -15 20 -20 43 -20
82 0 61 19 95 74 133 41 28 111 29 160 3z"/>
<path d="M1100 1100 c-7 -4 -12 -20 -12 -35 0 -15 5 -31 12 -35 23 -14 40 1
40 35 0 34 -17 49 -40 35z"/>
<path d="M1380 1084 c0 -17 22 -14 28 4 2 7 -3 12 -12 12 -9 0 -16 -7 -16 -16z"/>
<path d="M1500 1070 c0 -5 5 -10 10 -10 6 0 10 5 10 10 0 6 -4 10 -10 10 -5 0
-10 -4 -10 -10z"/>
<path d="M1620 1085 c0 -9 6 -12 15 -9 8 4 15 10 15 15 0 5 -7 9 -15 9 -8 0
-15 -7 -15 -15z"/>
<path d="M1747 1080 c-3 -12 0 -20 8 -20 8 0 11 8 8 20 -3 11 -7 20 -8 20 -1
0 -5 -9 -8 -20z"/>
<path d="M1910 1085 c0 -9 6 -12 15 -9 8 4 15 10 15 15 0 5 -7 9 -15 9 -8 0
-15 -7 -15 -15z"/>
<path d="M2242 1098 c-30 -30 1 -94 33 -68 25 20 13 80 -15 80 -3 0 -11 -5
-18 -12z"/>
<path d="M2700 1085 c0 -9 6 -12 15 -9 8 4 15 10 15 15 0 5 -7 9 -15 9 -8 0
-15 -7 -15 -15z"/>
<path d="M3350 1085 c0 -8 7 -15 15 -15 8 0 15 7 15 15 0 8 -7 15 -15 15 -8 0
-15 -7 -15 -15z"/>
<path d="M3470 1084 c0 -8 5 -12 10 -9 6 3 10 10 10 16 0 5 -4 9 -10 9 -5 0
-10 -7 -10 -16z"/>
<path d="M3592 1098 c-28 -28 -3 -85 32 -72 22 8 22 70 0 78 -20 8 -18 8 -32
-6z"/>
<path d="M3730 1090 c0 -5 7 -10 15 -10 8 0 15 5 15 10 0 6 -7 10 -15 10 -8 0
-15 -4 -15 -10z"/>
<path d="M3730 1040 c0 -5 9 -10 20 -10 11 0 20 5 20 10 0 6 -9 10 -20 10 -11
0 -20 -4 -20 -10z"/>
<path d="M4237 1080 c-3 -12 0 -20 8 -20 8 0 11 8 8 20 -3 11 -7 20 -8 20 -1
0 -5 -9 -8 -20z"/>
</g>
</svg>
