<?xml version="1.0" standalone="no"?>
<!DOCTYPE svg PUBLIC "-//W3C//DTD SVG 20010904//EN"
 "http://www.w3.org/TR/2001/REC-SVG-20010904/DTD/svg10.dtd">
<svg version="1.0" xmlns="http://www.w3.org/2000/svg"
 width="1280.000000pt" height="1280.000000pt" viewBox="0 0 1280.000000 1280.000000"
 preserveAspectRatio="xMidYMid meet">

<g transform="translate(0.000000,1280.000000) scale(0.100000,-0.100000)"
fill="#000000" stroke="none">
<path d="M0 12465 l0 -335 400 0 400 0 0 335 0 335 -400 0 -400 0 0 -335z
m263 116 c-5 -56 -4 -59 18 -64 23 -4 23 -4 -3 -6 -25 -1 -26 2 -30 57 -4 60
-2 72 12 72 4 0 6 -27 3 -59z m149 53 c3 -3 2 -21 -2 -40 -6 -26 -5 -34 6 -34
8 0 14 10 14 25 0 25 1 25 80 25 47 0 80 -4 80 -10 0 -6 -32 -10 -75 -10 -54
0 -75 -4 -75 -13 0 -7 10 -17 23 -22 19 -8 22 -19 25 -68 4 -77 -5 -87 -83
-87 -94 0 -95 1 -95 81 0 64 2 69 24 75 31 7 23 34 -10 34 -13 0 -24 5 -24 11
0 6 14 9 33 7 24 -2 33 -8 35 -25 2 -13 8 -23 14 -23 6 0 8 13 5 34 -6 39 6
60 25 40z m139 -87 c-1 -4 -1 -14 -1 -22 0 -10 -9 -15 -27 -14 -19 1 -22 3
-10 6 10 3 16 11 13 18 -2 7 -2 16 2 19 7 8 24 3 23 -7z m-251 -68 c0 -5 -20
-9 -45 -9 -40 0 -54 7 -41 21 9 8 86 -3 86 -12z m290 1 c0 -5 -20 -10 -45 -10
-25 0 -45 5 -45 10 0 6 20 10 45 10 25 0 45 -4 45 -10z m-290 -30 c0 -5 -9
-10 -19 -10 -14 0 -18 -5 -14 -20 4 -14 0 -20 -11 -20 -18 0 -20 13 -6 41 11
20 50 27 50 9z m248 -22 c2 -16 -1 -28 -7 -28 -6 0 -11 9 -11 20 0 11 -7 20
-15 20 -8 0 -15 5 -15 11 0 6 10 9 23 7 16 -2 23 -11 25 -30z m-218 -68 c9
-16 8 -20 -5 -20 -8 0 -15 9 -15 20 0 11 2 20 5 20 2 0 9 -9 15 -20z m41 5 c7
19 8 19 8 -2 1 -14 -5 -23 -14 -23 -9 0 -15 9 -14 23 1 20 2 20 7 2 l5 -20 8
20z m42 -5 c-3 -11 -7 -20 -8 -20 -1 0 -5 9 -8 20 -3 12 0 20 8 20 8 0 11 -8
8 -20z m32 10 c-3 -5 -1 -10 4 -10 6 0 11 5 11 10 0 6 8 10 18 10 14 0 15 -2
2 -10 -13 -8 -13 -11 -1 -19 10 -6 3 -9 -23 -9 -34 0 -47 14 -29 31 10 11 25
8 18 -3z m-245 -99 c0 -5 -22 -8 -50 -7 -65 1 -65 16 0 16 28 0 50 -4 50 -9z
m90 -1 c0 -10 -66 -8 -76 3 -4 4 11 7 34 7 23 0 42 -4 42 -10z m86 3 c-10 -11
-76 -11 -76 -1 0 4 19 8 42 8 23 0 38 -3 34 -7z m64 -2 c0 -6 -10 -8 -21 -6
-33 6 -36 15 -6 15 15 0 27 -4 27 -9z m80 -1 c0 -9 -56 -7 -66 2 -4 4 10 7 30
6 20 -1 36 -4 36 -8z m100 0 c0 -10 -76 -7 -87 4 -4 3 15 6 40 6 26 0 47 -4
47 -10z m80 1 c0 -6 -16 -9 -35 -8 -46 3 -46 17 0 17 19 0 35 -4 35 -9z"/>
<path d="M385 12520 c-4 -6 -11 -8 -16 -5 -5 4 -9 0 -9 -9 0 -8 -6 -17 -12
-20 -10 -5 -10 -7 0 -12 6 -3 12 -13 12 -21 0 -9 3 -13 7 -10 3 4 13 2 20 -5
11 -9 16 -9 23 1 4 8 12 11 18 7 5 -3 12 3 15 14 6 25 -3 61 -13 55 -5 -3 -11
-1 -15 5 -3 5 -10 10 -15 10 -5 0 -12 -5 -15 -10z m35 -40 c0 -13 -7 -20 -19
-20 -22 0 -35 15 -26 30 12 19 45 11 45 -10z"/>
</g>
</svg>
